<?xml version="1.0" encoding="UTF-8"?>
<!DOCTYPE svg PUBLIC "-//W3C//DTD SVG 1.1//EN" "http://www.w3.org/Graphics/SVG/1.1/DTD/svg11.dtd">
<svg version="1.1" xmlns="http://www.w3.org/2000/svg" xmlns:xlink="http://www.w3.org/1999/xlink" x="0" y="0" width="157.917" height="177.684" viewBox="0, 0, 157.917, 177.684">
  <g id="Layer_1" transform="translate(-78.628, -123.206)">
    <g>
      <path d="M92.128,136.706 L224.045,136.706 L224.045,288.39 L92.128,288.39 L92.128,136.706 z" fill="#FFFFFF"/>
      <path d="M92.128,136.706 L224.045,136.706 L224.045,288.39 L92.128,288.39 L92.128,136.706 z" fill-opacity="0" stroke="#000000" stroke-width="6"/>
    </g>
    <g>
      <text transform="matrix(1, 0, 0, 1, 158.99, 192.066)">
        <tspan x="-36" y="15.742" font-family="PalatinoLinotype-Bold" font-size="48" fill="#000000">CV</tspan>
      </text>
      <path d="M156.154,203.707 L155.076,206.097 Q150.131,208.816 144.014,208.816 Q131.779,208.816 127.279,200.003 Q125.193,195.925 125.193,191.167 Q125.193,183.48 130.303,178.91 Q135.529,174.199 144.576,174.199 Q150.318,174.199 155.803,176.285 L156.107,176.636 Q155.31,179.871 155.123,184.207 L154.912,184.441 L153.529,184.441 L153.295,184.183 Q153.224,181.347 153.037,180.246 Q150.107,176.941 144.576,176.941 Q138.881,176.941 135.646,180.55 Q132.412,184.16 132.412,190.347 Q132.412,198.714 138.178,203.191 Q141.248,205.582 146.404,205.582 Q151.092,205.582 155.568,203.167 z M194.217,176.566 L193.982,176.8 Q192.342,176.964 191.885,177.187 Q191.428,177.41 190.912,178.253 Q190.349,179.167 188.896,182.66 L187.232,186.621 L184.092,194.261 Q180.037,204.105 178.631,208.113 L175.068,208.113 L164.31,182.027 Q162.599,177.949 161.92,177.339 Q161.404,176.847 159.06,176.8 L158.826,176.542 L158.826,174.996 L159.084,174.738 Q161.545,174.878 165.295,174.878 Q169.982,174.878 173.826,174.738 L174.06,174.996 L174.06,176.566 L173.849,176.8 Q171.482,176.824 170.732,177.222 Q170.334,177.457 170.334,178.019 Q170.334,178.628 171.857,182.472 L172.959,185.261 L178.889,199.91 L184.092,186.855 Q184.396,186.105 185.498,183.082 Q187.092,178.722 187.092,177.996 Q187.092,177.222 186.576,177.058 Q186.06,176.894 183.435,176.8 L183.201,176.566 L183.201,174.972 L183.459,174.738 Q186.107,174.878 188.967,174.878 Q191.006,174.878 193.959,174.738 L194.217,174.996 z" fill-opacity="0" stroke="#000000" stroke-width="3"/>
    </g>
    <path d="M118.98,232.62 L197.569,232.62" fill-opacity="0" stroke="#000000" stroke-width="6"/>
    <path d="M118.98,247.259 L197.569,247.259" fill-opacity="0" stroke="#000000" stroke-width="6"/>
    <path d="M118.792,261.031 L197.381,261.031" fill-opacity="0" stroke="#000000" stroke-width="6"/>
    <g>
      <path d="M85.554,161.196 L85.39,133.601 L126.648,133.386 z" fill="#FFFFFF"/>
      <path d="M85.554,161.196 L85.39,133.601 L126.648,133.386 z" fill-opacity="0" stroke="#FFFFFF" stroke-width="3"/>
    </g>
    <g>
      <path d="M98.158,158.308 L125.035,139.121 L125.033,158.308 z" fill="#929292"/>
      <path d="M98.158,158.308 L125.035,139.121 L125.033,158.308 z" fill-opacity="0" stroke="#000000" stroke-width="6"/>
    </g>
  </g>
</svg>
